<?xml version="1.0" encoding="iso-8859-1"?>
<!-- Uploaded to: SVG Repo, www.svgrepo.com, Generator: SVG Repo Mixer Tools -->
<!DOCTYPE svg PUBLIC "-//W3C//DTD SVG 1.1//EN" "http://www.w3.org/Graphics/SVG/1.1/DTD/svg11.dtd">
<svg fill="#000000" version="1.1" id="Capa_1" xmlns="http://www.w3.org/2000/svg" xmlns:xlink="http://www.w3.org/1999/xlink" 
	 width="800px" height="800px" viewBox="0 0 360.205 360.205"
	 xml:space="preserve">
<g>
	<g>
		<g>
			<path d="M338.855,291.439h-18.473c-2.416,0-4.371-1.956-4.371-4.371s1.955-4.371,4.371-4.371h18.473
				c6.953,0,12.607-5.655,12.607-12.607V212.36c0-8.582-3.559-22.148-7.771-29.624l-43.605-77.383
				c-3.838-6.812-13.688-12.567-21.506-12.567h-28.016c-6.951,0-12.607,5.655-12.607,12.607v73.01
				c0,6.952,5.656,12.607,12.607,12.607h59.426c2.414,0,4.371,1.957,4.371,4.371c0,2.415-1.957,4.372-4.371,4.372h-59.426
				c-11.771,0-21.35-9.579-21.35-21.351v-73.01c0-11.771,9.578-21.35,21.35-21.35h28.016c10.953,0,23.744,7.475,29.121,17.017
				l43.605,77.383c4.99,8.853,8.898,23.75,8.898,33.917v57.729C360.205,281.863,350.627,291.439,338.855,291.439z"/>
		</g>
		<path d="M186.045,38.201H21.35C9.579,38.201,0,47.779,0,59.551v210.539c0,11.771,9.579,21.35,21.35,21.35h35.552
			c2.161,17.203,16.851,30.563,34.628,30.563c19.264,0,34.935-15.671,34.935-34.935s-15.671-34.935-34.935-34.935
			c-6.466,0-12.784,1.78-18.264,5.151c-2.058,1.264-2.7,3.957-1.436,6.014c1.264,2.058,3.959,2.696,6.012,1.436
			c4.105-2.523,8.839-3.857,13.688-3.857c14.441,0,26.192,11.748,26.192,26.191c0,14.441-11.75,26.192-26.192,26.192
			s-26.19-11.749-26.19-26.192c0-2.415-1.957-4.371-4.372-4.371H21.35c-6.952,0-12.607-5.655-12.607-12.607V59.551
			c0-6.952,5.655-12.607,12.607-12.607h164.695c6.951,0,12.607,5.655,12.607,12.607v28.866c0,2.415,1.957,4.371,4.371,4.371
			s4.371-1.957,4.371-4.371V59.551C207.395,47.779,197.818,38.201,186.045,38.201z"/>
		<path d="M264.148,252.135c-6.465,0-12.781,1.78-18.266,5.151c-2.059,1.264-2.699,3.955-1.436,6.012
			c1.264,2.058,3.957,2.701,6.012,1.436c4.107-2.523,8.84-3.857,13.689-3.857c14.441,0,26.189,11.748,26.189,26.191
			c0,14.441-11.748,26.192-26.189,26.192c-14.389,0-26.098-11.665-26.184-26.033c0.002-0.054,0.016-0.104,0.016-0.157
			c0-2.415-1.957-4.371-4.371-4.371h-88.208c-2.415,0-4.372,1.956-4.372,4.371s1.957,4.371,4.372,4.371h84.117
			c2.162,17.203,16.852,30.563,34.631,30.563c19.262,0,34.934-15.671,34.934-34.935S283.41,252.135,264.148,252.135z"/>
	</g>
</g>
</svg>